<?xml version="1.0" encoding="UTF-8"?>
<!DOCTYPE svg PUBLIC "-//W3C//DTD SVG 1.1//EN" "http://www.w3.org/Graphics/SVG/1.1/DTD/svg11.dtd">
<svg xmlns="http://www.w3.org/2000/svg" version="1.1" width="400px" height="400px" style="shape-rendering:geometricPrecision; text-rendering:geometricPrecision; image-rendering:optimizeQuality; fill-rule:evenodd; clip-rule:evenodd" xmlns:xlink="http://www.w3.org/1999/xlink">
<g><path style="opacity:0.952" fill="#d4a928" d="M 177.5,-0.5 C 192.167,-0.5 206.833,-0.5 221.5,-0.5C 300.352,11.5157 355.518,54.1824 387,127.5C 392.901,143.873 397.068,160.539 399.5,177.5C 399.5,192.167 399.5,206.833 399.5,221.5C 387.484,300.352 344.818,355.518 271.5,387C 255.127,392.901 238.461,397.068 221.5,399.5C 206.833,399.5 192.167,399.5 177.5,399.5C 98.6466,387.482 43.4799,344.815 12,271.5C 6.09863,255.127 1.93197,238.461 -0.5,221.5C -0.5,206.833 -0.5,192.167 -0.5,177.5C 11.5157,98.6484 54.1824,43.4817 127.5,12C 143.87,6.09903 160.537,1.93236 177.5,-0.5 Z M 193.5,7.5 C 269.089,8.36129 326.589,40.6946 366,104.5C 400.674,170.064 399.674,235.064 363,299.5C 324.672,358.263 270.172,388.929 199.5,391.5C 126.655,388.346 71.1551,356.013 33,294.5C -1.67431,228.936 -0.674314,163.936 36,99.5C 73.2414,42.9547 125.741,12.288 193.5,7.5 Z M 179.5,26.5 C 180.186,27.8484 181.186,29.015 182.5,30C 181.552,30.4828 180.552,30.6495 179.5,30.5C 179.5,29.1667 179.5,27.8333 179.5,26.5 Z M 218.5,26.5 C 219.434,27.5676 219.768,28.901 219.5,30.5C 218.448,30.6495 217.448,30.4828 216.5,30C 217.973,29.2904 218.64,28.1238 218.5,26.5 Z M 26.5,180.5 C 27.5676,179.566 28.901,179.232 30.5,179.5C 30.6495,180.552 30.4828,181.552 30,182.5C 29.2904,181.027 28.1238,180.36 26.5,180.5 Z M 368.5,179.5 C 369.873,179.343 371.207,179.51 372.5,180C 370.939,180.318 369.772,181.151 369,182.5C 368.517,181.552 368.351,180.552 368.5,179.5 Z M 29.5,216.5 C 30.404,217.209 30.7373,218.209 30.5,219.5C 29.1266,219.657 27.7932,219.49 26.5,219C 28.1193,218.764 29.1193,217.931 29.5,216.5 Z M 368.5,217.5 C 369.766,218.09 371.099,218.59 372.5,219C 370.537,219.844 369.204,219.344 368.5,217.5 Z M 179.5,368.5 C 180.552,368.351 181.552,368.517 182.5,369C 181.151,369.772 180.318,370.939 180,372.5C 179.51,371.207 179.343,369.873 179.5,368.5 Z"/></g>
<g><path style="opacity:0.879" fill="#d4a828" d="M 183.5,15.5 C 188.43,15.1975 193.263,15.5308 198,16.5C 198.499,22.1569 198.666,27.8236 198.5,33.5C 186.704,33.8172 175.037,35.1505 163.5,37.5C 162.179,31.5517 161.179,25.5517 160.5,19.5C 165.822,18.5025 171.155,17.5025 176.5,16.5C 177.647,16.8178 178.481,17.4844 179,18.5C 180.31,17.1031 181.81,16.1031 183.5,15.5 Z M 179.5,26.5 C 179.5,27.8333 179.5,29.1667 179.5,30.5C 180.552,30.6495 181.552,30.4828 182.5,30C 181.186,29.015 180.186,27.8484 179.5,26.5 Z"/></g>
<g><path style="opacity:0.883" fill="#d4a928" d="M 201.5,15.5 C 206.179,15.3342 210.845,15.5008 215.5,16C 217.402,16.1992 218.902,17.0325 220,18.5C 220.519,17.4844 221.353,16.8178 222.5,16.5C 227.845,17.5025 233.178,18.5025 238.5,19.5C 237.821,25.5517 236.821,31.5517 235.5,37.5C 223.966,35.1217 212.299,33.7884 200.5,33.5C 200.211,27.4093 200.545,21.4093 201.5,15.5 Z M 218.5,26.5 C 218.64,28.1238 217.973,29.2904 216.5,30C 217.448,30.4828 218.448,30.6495 219.5,30.5C 219.768,28.901 219.434,27.5676 218.5,26.5 Z"/></g>
<g><path style="opacity:0.869" fill="#d4a827" d="M 153.5,20.5 C 154.833,20.5 156.167,20.5 157.5,20.5C 158.518,26.0961 159.852,31.5961 161.5,37C 150.602,40.468 139.935,44.6347 129.5,49.5C 127.515,47.5434 126.015,45.2101 125,42.5C 123.361,39.2577 122.361,35.9243 122,32.5C 132.555,28.3092 143.055,24.3092 153.5,20.5 Z"/></g>
<g><path style="opacity:0.865" fill="#d4a827" d="M 241.5,20.5 C 245.222,21.0166 248.888,21.85 252.5,23C 260.665,25.4098 268.665,28.4098 276.5,32C 277.022,32.5613 277.355,33.228 277.5,34C 275.674,39.6763 273.008,44.843 269.5,49.5C 259.065,44.6347 248.398,40.468 237.5,37C 239.148,31.5961 240.482,26.0961 241.5,20.5 Z"/></g>
<g><path style="opacity:0.861" fill="#d4a827" d="M 116.5,34.5 C 117.496,34.4142 118.329,34.7476 119,35.5C 121,39.5 123,43.5 125,47.5C 125.781,48.9437 125.614,50.277 124.5,51.5C 114.898,56.5465 105.731,62.2132 97,68.5C 93.675,64.5321 90.3417,60.5321 87,56.5C 86.3333,55.5 86.3333,54.5 87,53.5C 96.9065,47.1162 106.74,40.7829 116.5,34.5 Z"/></g>
<g><path style="opacity:0.874" fill="#d3a827" d="M 280.5,34.5 C 285.757,36.4617 290.757,38.9617 295.5,42C 301.247,45.4027 306.747,49.236 312,53.5C 312.667,54.5 312.667,55.5 312,56.5C 308.658,60.5321 305.325,64.5321 302,68.5C 293.269,62.2132 284.102,56.5465 274.5,51.5C 273.386,50.277 273.219,48.9437 274,47.5C 276.18,43.1401 278.347,38.8068 280.5,34.5 Z"/></g>
<g><path style="opacity:0.997" fill="#d4a929" d="M 188.5,40.5 C 246.074,38.8757 292.574,60.5424 328,105.5C 365.16,161.672 368.16,219.672 337,279.5C 308.055,326.575 265.889,352.742 210.5,358C 152.902,360.113 106.402,338.613 71,293.5C 33.8403,237.328 30.8403,179.328 62,119.5C 91.1527,72.4985 133.319,46.1651 188.5,40.5 Z"/></g>
<g><path style="opacity:0.889" fill="#d3a827" d="M 81.5,57.5 C 84.6136,58.0913 87.1136,59.758 89,62.5C 90.2899,64.792 91.9565,66.792 94,68.5C 94.6667,69.5 94.6667,70.5 94,71.5C 85.6317,78.8701 77.6317,86.5367 70,94.5C 65.0861,91.463 60.9195,87.6297 57.5,83C 60.4252,77.239 64.7585,73.0723 70.5,70.5C 70.3505,69.448 70.5172,68.448 71,67.5C 74.3955,63.9349 77.8955,60.6015 81.5,57.5 Z"/></g>
<g><path style="opacity:0.871" fill="#d5a927" d="M 314.5,57.5 C 321.103,59.7701 325.769,64.1034 328.5,70.5C 334.241,73.0723 338.575,77.239 341.5,83C 338.512,87.3209 334.846,90.9876 330.5,94C 329.5,94.6667 328.5,94.6667 327.5,94C 320.667,85.8333 313.167,78.3333 305,71.5C 304.333,70.5 304.333,69.5 305,68.5C 308.174,64.802 311.341,61.1353 314.5,57.5 Z"/></g>
<g><path style="opacity:1" fill="#401416" d="M 287.5,78.5 C 288.75,78.5774 289.583,79.244 290,80.5C 290.667,83.1667 290.667,85.8333 290,88.5C 278.11,115.064 258.61,133.231 231.5,143C 242.787,135.103 253.62,126.603 264,117.5C 273.887,105.724 281.72,92.7242 287.5,78.5 Z"/></g>
<g><path style="opacity:0.877" fill="#d4a827" d="M 53.5,86.5 C 59.1449,88.962 64.1449,92.462 68.5,97C 62.5549,104.963 57.3883,113.463 53,122.5C 52.2545,123.99 51.0879,124.99 49.5,125.5C 44.0256,123.598 39.0256,120.931 34.5,117.5C 40.6838,107.059 47.0172,96.7252 53.5,86.5 Z"/></g>
<g><path style="opacity:0.877" fill="#d5a827" d="M 342.5,86.5 C 343.552,86.3505 344.552,86.5172 345.5,87C 347.667,89.8333 349.833,92.6667 352,95.5C 356.4,102.626 360.567,109.96 364.5,117.5C 359.974,120.931 354.974,123.598 349.5,125.5C 347.912,124.99 346.745,123.99 346,122.5C 341.612,113.463 336.445,104.963 330.5,97C 334.673,93.6582 338.673,90.1582 342.5,86.5 Z"/></g>
<g><path style="opacity:1" fill="#3d1115" d="M 152.5,104.5 C 153.043,104.56 153.376,104.893 153.5,105.5C 144.165,120.171 136.998,135.838 132,152.5C 129.295,171.441 131.129,189.941 137.5,208C 137.167,208.833 136.833,209.667 136.5,210.5C 127.266,200.694 121.766,189.027 120,175.5C 118.053,158.623 122.053,143.29 132,129.5C 138.29,120.711 145.123,112.378 152.5,104.5 Z"/></g>
<g><path style="opacity:1" fill="#441817" d="M 290.5,119.5 C 291.5,119.5 292.5,119.5 293.5,119.5C 290.66,130.839 283.66,138.005 272.5,141C 276.151,137.07 279.984,133.236 284,129.5C 286.783,126.553 288.95,123.22 290.5,119.5 Z"/></g>
<g><path style="opacity:0.869" fill="#d4a927" d="M 363.5,121.5 C 365.911,121.137 367.411,122.137 368,124.5C 372.59,135.105 376.09,146.105 378.5,157.5C 372.904,158.518 367.404,159.852 362,161.5C 358.532,150.602 354.365,139.935 349.5,129.5C 353.901,126.302 358.567,123.635 363.5,121.5 Z"/></g>
<g><path style="opacity:0.873" fill="#d4a827" d="M 32.5,121.5 C 38.7502,123.023 44.4169,125.69 49.5,129.5C 44.6347,139.935 40.468,150.602 37,161.5C 31.5961,159.852 26.0961,158.518 20.5,157.5C 21.5264,151.729 23.0264,146.062 25,140.5C 27.1973,134.08 29.6973,127.747 32.5,121.5 Z"/></g>
<g><path style="opacity:1" fill="#471b17" d="M 163.5,121.5 C 166.244,122.072 167.077,123.738 166,126.5C 164.374,129.128 162.374,131.461 160,133.5C 159.838,129.15 161.004,125.15 163.5,121.5 Z"/></g>
<g><path style="opacity:1" fill="#431716" d="M 170.5,140.5 C 171.237,145.757 169.57,150.423 165.5,154.5C 164.841,149.124 166.508,144.457 170.5,140.5 Z"/></g>
<g><path style="opacity:1" fill="#411516" d="M 295.5,145.5 C 296.693,145.97 297.36,146.97 297.5,148.5C 292.651,158.854 285.151,166.854 275,172.5C 278.416,166.119 283.083,160.452 289,155.5C 291.426,152.309 293.593,148.975 295.5,145.5 Z"/></g>
<g><path style="opacity:0.885" fill="#d4a827" d="M 19.5,160.5 C 25.5517,161.179 31.5517,162.179 37.5,163.5C 35.1505,175.037 33.8172,186.704 33.5,198.5C 27.5746,198.808 21.7412,198.475 16,197.5C 15.3333,192.833 15.3333,188.167 16,183.5C 16.1992,181.598 17.0325,180.098 18.5,179C 17.4844,178.481 16.8178,177.647 16.5,176.5C 17.5025,171.155 18.5025,165.822 19.5,160.5 Z M 26.5,180.5 C 28.1238,180.36 29.2904,181.027 30,182.5C 30.4828,181.552 30.6495,180.552 30.5,179.5C 28.901,179.232 27.5676,179.566 26.5,180.5 Z"/></g>
<g><path style="opacity:0.886" fill="#d4a928" d="M 373.5,160.5 C 375.5,160.5 377.5,160.5 379.5,160.5C 380.498,165.822 381.498,171.155 382.5,176.5C 382.182,177.647 381.516,178.481 380.5,179C 381.967,180.098 382.801,181.598 383,183.5C 383.667,188.167 383.667,192.833 383,197.5C 377.259,198.475 371.425,198.808 365.5,198.5C 365.183,186.704 363.85,175.037 361.5,163.5C 365.736,162.992 369.736,161.992 373.5,160.5 Z M 368.5,179.5 C 368.351,180.552 368.517,181.552 369,182.5C 369.772,181.151 370.939,180.318 372.5,180C 371.207,179.51 369.873,179.343 368.5,179.5 Z"/></g>
<g><path style="opacity:1" fill="#461b17" d="M 174.5,160.5 C 176.344,161.204 176.844,162.537 176,164.5C 174.999,167.173 173.499,169.507 171.5,171.5C 171.167,171 170.833,170.5 170.5,170C 171.984,166.87 173.317,163.703 174.5,160.5 Z"/></g>
<g><path style="opacity:1" fill="#481c17" d="M 196.5,163.5 C 197.525,163.897 197.692,164.563 197,165.5C 183.934,179.281 173.6,194.948 166,212.5C 164.333,217.5 162.667,222.5 161,227.5C 161.689,215.766 165.022,204.766 171,194.5C 177.883,182.788 186.383,172.455 196.5,163.5 Z"/></g>
<g><path style="opacity:1" fill="#461b17" d="M 289.5,183.5 C 291.252,183.418 292.252,184.251 292.5,186C 287.336,195.836 279.336,201.836 268.5,204C 276.688,198.311 283.688,191.478 289.5,183.5 Z"/></g>
<g><path style="opacity:0.878" fill="#d4a828" d="M 16.5,200.5 C 22.1667,200.5 27.8333,200.5 33.5,200.5C 33.8172,212.296 35.1505,223.963 37.5,235.5C 31.5517,236.821 25.5517,237.821 19.5,238.5C 18.5025,233.178 17.5025,227.845 16.5,222.5C 16.8178,221.353 17.4844,220.519 18.5,220C 17.0325,218.902 16.1992,217.402 16,215.5C 15.2223,210.416 15.3889,205.416 16.5,200.5 Z M 29.5,216.5 C 29.1193,217.931 28.1193,218.764 26.5,219C 27.7932,219.49 29.1266,219.657 30.5,219.5C 30.7373,218.209 30.404,217.209 29.5,216.5 Z"/></g>
<g><path style="opacity:0.875" fill="#d4a928" d="M 365.5,200.5 C 371.425,200.192 377.259,200.525 383,201.5C 383.667,206.167 383.667,210.833 383,215.5C 382.801,217.402 381.967,218.902 380.5,220C 381.516,220.519 382.182,221.353 382.5,222.5C 381.498,227.845 380.498,233.178 379.5,238.5C 373.448,237.821 367.448,236.821 361.5,235.5C 363.85,223.963 365.183,212.296 365.5,200.5 Z M 368.5,217.5 C 369.204,219.344 370.537,219.844 372.5,219C 371.099,218.59 369.766,218.09 368.5,217.5 Z"/></g>
<g><path style="opacity:1" fill="#401516" d="M 263.5,226.5 C 265.199,226.34 266.866,226.506 268.5,227C 252.531,234.651 236.531,242.317 220.5,250C 211.571,257.03 204.405,265.53 199,275.5C 189.952,295.268 179.618,314.268 168,332.5C 167.333,331.5 167.333,330.5 168,329.5C 180.938,303.957 193.605,278.29 206,252.5C 209.97,247.525 214.803,243.691 220.5,241C 234.979,236.23 249.312,231.396 263.5,226.5 Z"/></g>
<g><path style="opacity:1" fill="#3c1015" d="M 107.5,226.5 C 114.799,225.489 121.466,226.989 127.5,231C 134.5,231.333 141.5,231.667 148.5,232C 150.717,233.268 152.717,234.768 154.5,236.5C 145.376,236.343 136.209,237.009 127,238.5C 123.153,238.321 119.319,237.988 115.5,237.5C 109.263,238.937 102.929,239.771 96.5,240C 93.5878,240.845 92.5878,242.512 93.5,245C 102.217,245.161 110.884,245.827 119.5,247C 123.403,247.456 126.403,249.29 128.5,252.5C 127.667,252.833 126.833,253.167 126,253.5C 115.903,251.638 105.737,251.138 95.5,252C 91.3333,253.5 88.5,256.333 87,260.5C 78.1743,252.996 78.3409,245.829 87.5,239C 94.7357,235.559 101.402,231.393 107.5,226.5 Z"/></g>
<g><path style="opacity:0.861" fill="#d4a927" d="M 36.5,237.5 C 37.7899,238.058 38.6232,239.058 39,240.5C 41.3706,250.575 44.8706,260.241 49.5,269.5C 44.843,273.008 39.6763,275.674 34,277.5C 33.228,277.355 32.5613,277.022 32,276.5C 30.3333,272.5 28.6667,268.5 27,264.5C 24.1369,257.071 21.9702,249.405 20.5,241.5C 26.0387,240.531 31.372,239.198 36.5,237.5 Z"/></g>
<g><path style="opacity:0.867" fill="#d5a827" d="M 361.5,237.5 C 367.082,239.084 372.749,240.417 378.5,241.5C 377.03,249.405 374.863,257.071 372,264.5C 370.333,268.5 368.667,272.5 367,276.5C 366.439,277.022 365.772,277.355 365,277.5C 359.324,275.674 354.157,273.008 349.5,269.5C 354.494,259.181 358.494,248.515 361.5,237.5 Z"/></g>
<g><path style="opacity:1" fill="#3f1416" d="M 128.5,263.5 C 136.734,267.382 143.567,273.049 149,280.5C 149.942,287.982 149.275,295.315 147,302.5C 147.601,293.654 145.934,285.321 142,277.5C 136.602,273.604 132.102,268.937 128.5,263.5 Z"/></g>
<g><path style="opacity:1" fill="#491d17" d="M 214.5,263.5 C 223.634,266.267 232.301,270.101 240.5,275C 239.167,275.667 237.833,275.667 236.5,275C 230.248,272.138 223.915,269.472 217.5,267C 215.574,266.578 214.574,265.411 214.5,263.5 Z"/></g>
<g><path style="opacity:1" fill="#421616" d="M 162.5,266.5 C 165.808,265.974 167.974,267.307 169,270.5C 169.129,279.637 170.295,288.637 172.5,297.5C 171.637,299.872 170.471,299.872 169,297.5C 165.09,287.527 162.923,277.193 162.5,266.5 Z"/></g>
<g><path style="opacity:1" fill="#411616" d="M 211.5,270.5 C 218.216,271.852 224.549,274.352 230.5,278C 242.664,284.245 254.331,291.245 265.5,299C 262.756,298.981 260.089,298.314 257.5,297C 243.185,290.177 229.185,282.843 215.5,275C 213.365,274.124 212.031,272.624 211.5,270.5 Z"/></g>
<g><path style="opacity:0.878" fill="#d4a827" d="M 47.5,273.5 C 49.9806,273.323 51.8139,274.323 53,276.5C 57.3883,285.537 62.5549,294.037 68.5,302C 64.2946,305.871 59.7946,309.371 55,312.5C 52.0327,309.86 49.3661,306.86 47,303.5C 42.5996,296.374 38.4329,289.04 34.5,281.5C 38.694,278.571 43.0274,275.905 47.5,273.5 Z"/></g>
<g><path style="opacity:0.879" fill="#d4a827" d="M 347.5,273.5 C 353.817,274.826 359.484,277.492 364.5,281.5C 360.567,289.04 356.4,296.374 352,303.5C 349.634,306.86 346.967,309.86 344,312.5C 339.205,309.371 334.705,305.871 330.5,302C 337.064,293.04 342.73,283.54 347.5,273.5 Z"/></g>
<g><path style="opacity:1" fill="#471b17" d="M 202.5,279.5 C 213.179,286.332 223.179,294.165 232.5,303C 231.092,303.315 229.759,302.982 228.5,302C 222.345,297.089 216.011,292.423 209.5,288C 206.553,285.564 204.22,282.731 202.5,279.5 Z"/></g>
<g><path style="opacity:0.871" fill="#d5a827" d="M 68.5,304.5 C 69.552,304.351 70.552,304.517 71.5,305C 78.8701,313.368 86.5367,321.368 94.5,329C 91.463,333.914 87.6297,338.081 83,341.5C 77.239,338.575 73.0723,334.241 70.5,328.5C 64.7585,325.928 60.4252,321.761 57.5,316C 60.746,311.722 64.4126,307.888 68.5,304.5 Z"/></g>
<g><path style="opacity:0.862" fill="#d5a927" d="M 327.5,304.5 C 328.552,304.351 329.552,304.517 330.5,305C 334.846,308.012 338.512,311.679 341.5,316C 338.575,321.761 334.241,325.928 328.5,328.5C 325.928,334.241 321.761,338.575 316,341.5C 311.37,338.081 307.537,333.914 304.5,329C 312.669,321.33 320.336,313.163 327.5,304.5 Z"/></g>
<g><path style="opacity:0.872" fill="#d4a827" d="M 95.5,330.5 C 96.552,330.351 97.552,330.517 98.5,331C 106.659,337.249 115.326,342.749 124.5,347.5C 125.614,348.723 125.781,350.056 125,351.5C 122.961,355.745 120.794,359.912 118.5,364C 113.222,362.531 108.222,360.198 103.5,357C 97.7531,353.597 92.2531,349.764 87,345.5C 86.3333,344.5 86.3333,343.5 87,342.5C 90.4665,338.88 93.2999,334.88 95.5,330.5 Z"/></g>
<g><path style="opacity:0.876" fill="#d4a827" d="M 300.5,330.5 C 302.91,330.921 304.743,332.254 306,334.5C 308,337.167 310,339.833 312,342.5C 312.667,343.5 312.667,344.5 312,345.5C 306.747,349.764 301.247,353.597 295.5,357C 290.778,360.198 285.778,362.531 280.5,364C 278.206,359.912 276.039,355.745 274,351.5C 273.219,350.056 273.386,348.723 274.5,347.5C 283.915,342.804 292.582,337.138 300.5,330.5 Z"/></g>
<g><path style="opacity:0.869" fill="#d4a727" d="M 128.5,349.5 C 139.342,354.168 150.342,358.335 161.5,362C 159.852,367.404 158.518,372.904 157.5,378.5C 153.778,377.983 150.112,377.15 146.5,376C 138.335,373.59 130.335,370.59 122.5,367C 121.483,365.951 121.316,364.784 122,363.5C 123.907,358.687 126.074,354.02 128.5,349.5 Z"/></g>
<g><path style="opacity:0.865" fill="#d4a827" d="M 268.5,349.5 C 269.496,349.414 270.329,349.748 271,350.5C 273.822,355.647 275.822,360.98 277,366.5C 272.907,368.462 268.741,370.296 264.5,372C 257.071,374.863 249.405,377.03 241.5,378.5C 240.482,372.904 239.148,367.404 237.5,362C 245.789,359.014 254.122,356.014 262.5,353C 264.727,352.059 266.727,350.892 268.5,349.5 Z"/></g>
<g><path style="opacity:0.878" fill="#d4a828" d="M 163.5,361.5 C 175.037,363.85 186.704,365.183 198.5,365.5C 198.808,371.425 198.475,377.259 197.5,383C 192.833,383.667 188.167,383.667 183.5,383C 181.598,382.801 180.098,381.967 179,380.5C 178.481,381.516 177.647,382.182 176.5,382.5C 171.155,381.498 165.822,380.498 160.5,379.5C 161.179,373.448 162.179,367.448 163.5,361.5 Z M 179.5,368.5 C 179.343,369.873 179.51,371.207 180,372.5C 180.318,370.939 181.151,369.772 182.5,369C 181.552,368.517 180.552,368.351 179.5,368.5 Z"/></g>
<g><path style="opacity:0.876" fill="#d3a828" d="M 232.5,361.5 C 233.5,361.5 234.5,361.5 235.5,361.5C 236.821,367.448 237.821,373.448 238.5,379.5C 230.686,381.019 223.02,382.186 215.5,383C 210.833,383.667 206.167,383.667 201.5,383C 200.525,377.259 200.192,371.425 200.5,365.5C 211.454,365.331 222.121,363.997 232.5,361.5 Z"/></g>
</svg>
