<?xml version="1.0" encoding="UTF-8"?>
<!DOCTYPE svg PUBLIC "-//W3C//DTD SVG 1.1//EN" "http://www.w3.org/Graphics/SVG/1.1/DTD/svg11.dtd">
<svg xmlns="http://www.w3.org/2000/svg" version="1.1" width="256px" height="256px" style="shape-rendering:geometricPrecision; text-rendering:geometricPrecision; image-rendering:optimizeQuality; fill-rule:evenodd; clip-rule:evenodd" xmlns:xlink="http://www.w3.org/1999/xlink">
<g><path style="opacity:0.925" fill="#d4a928" d="M 111.5,-0.5 C 122.167,-0.5 132.833,-0.5 143.5,-0.5C 197.548,8.7041 233.382,39.3708 251,91.5C 252.715,98.2585 254.215,104.925 255.5,111.5C 255.5,122.167 255.5,132.833 255.5,143.5C 246.296,197.548 215.629,233.382 163.5,251C 156.741,252.715 150.075,254.215 143.5,255.5C 132.833,255.5 122.167,255.5 111.5,255.5C 57.4517,246.296 21.6184,215.629 4,163.5C 2.28494,156.741 0.784944,150.075 -0.5,143.5C -0.5,132.833 -0.5,122.167 -0.5,111.5C 8.7041,57.4517 39.3708,21.6184 91.5,4C 98.2585,2.28494 104.925,0.784944 111.5,-0.5 Z M 123.5,4.5 C 176.35,5.91247 214.85,29.9125 239,76.5C 258.982,126.612 251.315,171.945 216,212.5C 175.19,250.728 128.69,259.561 76.5,239C 31.2868,215.785 7.28685,178.619 4.5,127.5C 7.28685,76.3812 31.2868,39.2145 76.5,16C 91.6424,9.46366 107.309,5.63033 123.5,4.5 Z M 56.5,38.5 C 58.5869,39.5846 59.9202,41.2512 60.5,43.5C 58.4131,42.4154 57.0798,40.7488 56.5,38.5 Z M 198.5,38.5 C 198.262,40.4044 197.262,41.7377 195.5,42.5C 195.738,40.5956 196.738,39.2623 198.5,38.5 Z M 38.5,56.5 C 40.4044,56.7376 41.7377,57.7376 42.5,59.5C 40.5956,59.2624 39.2623,58.2624 38.5,56.5 Z M 216.5,56.5 C 215.415,58.5869 213.749,59.9202 211.5,60.5C 212.585,58.4131 214.251,57.0798 216.5,56.5 Z M 211.5,194.5 C 213.749,195.08 215.415,196.413 216.5,198.5C 214.251,197.92 212.585,196.587 211.5,194.5 Z M 42.5,195.5 C 41.7377,197.262 40.4044,198.262 38.5,198.5C 39.2623,196.738 40.5956,195.738 42.5,195.5 Z M 60.5,211.5 C 59.9202,213.749 58.5869,215.415 56.5,216.5C 57.0798,214.251 58.4131,212.585 60.5,211.5 Z M 195.5,212.5 C 197.262,213.262 198.262,214.596 198.5,216.5C 196.738,215.738 195.738,214.404 195.5,212.5 Z"/></g>
<g><path style="opacity:0.823" fill="#d5a928" d="M 117.5,9.5 C 120.5,9.5 123.5,9.5 126.5,9.5C 126.5,13.5 126.5,17.5 126.5,21.5C 119.932,21.4735 113.432,22.1401 107,23.5C 106.167,23.1667 105.333,22.8333 104.5,22.5C 103.027,19.2848 102.527,15.9514 103,12.5C 107.885,11.2446 112.718,10.2446 117.5,9.5 Z"/></g>
<g><path style="opacity:0.804" fill="#d4a928" d="M 128.5,9.5 C 136.232,9.71099 143.899,10.5443 151.5,12C 152.566,15.5451 152.233,19.0451 150.5,22.5C 149.667,22.8333 148.833,23.1667 148,23.5C 141.568,22.1401 135.068,21.4735 128.5,21.5C 128.5,17.5 128.5,13.5 128.5,9.5 Z"/></g>
<g><path style="opacity:0.807" fill="#d4a928" d="M 98.5,12.5 C 99.7498,12.5774 100.583,13.244 101,14.5C 101.606,17.43 102.44,20.2633 103.5,23C 96.505,25.7236 89.505,28.5569 82.5,31.5C 79.8454,28.206 78.3454,24.5393 78,20.5C 84.8363,17.5943 91.6697,14.9276 98.5,12.5 Z"/></g>
<g><path style="opacity:0.787" fill="#d5a828" d="M 154.5,12.5 C 161.923,14.6905 169.257,17.1905 176.5,20C 176.84,24.2071 175.507,28.0404 172.5,31.5C 165.495,28.5569 158.495,25.7236 151.5,23C 152.731,19.5772 153.731,16.0772 154.5,12.5 Z"/></g>
<g><path style="opacity:0.807" fill="#d3a728" d="M 198.5,38.5 C 196.738,39.2623 195.738,40.5956 195.5,42.5C 194.833,42.5 194.5,42.8333 194.5,43.5C 187.933,40.1337 181.433,36.4671 175,32.5C 175.799,28.5593 177.466,24.8927 180,21.5C 186.173,25.3423 192.339,29.1756 198.5,33C 199.536,34.7755 199.536,36.6089 198.5,38.5 Z"/></g>
<g><path style="opacity:0.996" fill="#d4a929" d="M 120.5,25.5 C 165.837,25.0701 199.003,44.7368 220,84.5C 236.604,125.875 230.604,163.542 202,197.5C 165.316,231.641 124.149,238.141 78.5,217C 37.9853,192.128 20.9853,155.961 27.5,108.5C 36.5882,67.4842 61.2549,40.9842 101.5,29C 107.933,27.5968 114.267,26.4302 120.5,25.5 Z"/></g>
<g><path style="opacity:0.813" fill="#d4a928" d="M 60.5,43.5 C 59.9202,41.2512 58.5869,39.5846 56.5,38.5C 55.4639,36.6089 55.4639,34.7755 56.5,33C 62.6608,29.1756 68.8275,25.3423 75,21.5C 77.5343,24.8927 79.2009,28.5593 80,32.5C 73.5668,36.4671 67.0668,40.1337 60.5,43.5 Z"/></g>
<g><path style="opacity:0.838" fill="#d4a928" d="M 56.5,38.5 C 57.0798,40.7488 58.4131,42.4154 60.5,43.5C 55.8333,50.1667 50.1667,55.8333 43.5,60.5C 43.5,59.8333 43.1667,59.5 42.5,59.5C 41.7377,57.7376 40.4044,56.7376 38.5,56.5C 36.8872,55.1619 36.3872,53.4952 37,51.5C 41.8333,46.6667 46.6667,41.8333 51.5,37C 53.4952,36.3872 55.1619,36.8872 56.5,38.5 Z"/></g>
<g><path style="opacity:0.819" fill="#d4a928" d="M 216.5,56.5 C 214.251,57.0798 212.585,58.4131 211.5,60.5C 204.833,55.8333 199.167,50.1667 194.5,43.5C 195.167,43.5 195.5,43.1667 195.5,42.5C 197.262,41.7377 198.262,40.4044 198.5,38.5C 199.838,36.8872 201.505,36.3872 203.5,37C 208.333,41.8333 213.167,46.6667 218,51.5C 218.613,53.4952 218.113,55.1619 216.5,56.5 Z"/></g>
<g><path style="opacity:1" fill="#431716" d="M 183.5,50.5 C 184.725,51.1522 185.392,52.3189 185.5,54C 181.975,65.5326 175.309,74.866 165.5,82C 159.75,85.6258 153.916,89.1258 148,92.5C 147.312,91.6683 147.479,91.0016 148.5,90.5C 165.172,81.4976 176.839,68.1643 183.5,50.5 Z"/></g>
<g><path style="opacity:0.812" fill="#d3a828" d="M 211.5,60.5 C 213.749,59.9202 215.415,58.5869 216.5,56.5C 218.391,55.4639 220.224,55.4639 222,56.5C 225.824,62.6608 229.658,68.8275 233.5,75C 230.107,77.5343 226.441,79.2009 222.5,80C 218.533,73.5668 214.866,67.0668 211.5,60.5 Z"/></g>
<g><path style="opacity:0.802" fill="#d4a928" d="M 38.5,56.5 C 39.2623,58.2624 40.5956,59.2624 42.5,59.5C 43.1667,59.5 43.5,59.8333 43.5,60.5C 40.1337,67.0668 36.4671,73.5668 32.5,80C 28.5593,79.2009 24.8927,77.5343 21.5,75C 25.3423,68.8275 29.1756,62.6608 33,56.5C 34.7755,55.4639 36.6089,55.4639 38.5,56.5 Z"/></g>
<g><path style="opacity:1" fill="#3e1216" d="M 96.5,67.5 C 97.0431,67.56 97.3764,67.8933 97.5,68.5C 91.1025,77.6296 86.6025,87.6296 84,98.5C 83.3333,104.167 83.3333,109.833 84,115.5C 85.0318,121.895 86.0318,128.228 87,134.5C 77.9987,124.152 74.6653,112.152 77,98.5C 78.8636,92.4402 81.5302,86.7736 85,81.5C 89.0455,76.9596 92.8788,72.2929 96.5,67.5 Z"/></g>
<g><path style="opacity:1" fill="#491d17" d="M 185.5,76.5 C 186.497,76.4701 187.164,76.9701 187.5,78C 184.679,83.4874 180.513,87.6541 175,90.5C 174.333,89.8333 174.333,89.1667 175,88.5C 179.667,85.4858 183.167,81.4858 185.5,76.5 Z"/></g>
<g><path style="opacity:0.8" fill="#d5a928" d="M 20.5,77.5 C 24.5216,78.3434 28.1883,80.0101 31.5,82.5C 28.5569,89.505 25.7236,96.505 23,103.5C 19.3365,102.545 15.8365,101.211 12.5,99.5C 14.8656,92.0248 17.5322,84.6914 20.5,77.5 Z"/></g>
<g><path style="opacity:1" fill="#491d17" d="M 104.5,77.5 C 105.478,77.811 106.145,78.4777 106.5,79.5C 105.826,81.5165 104.659,83.1832 103,84.5C 102.391,81.9348 102.891,79.6015 104.5,77.5 Z"/></g>
<g><path style="opacity:0.803" fill="#d4a928" d="M 231.5,77.5 C 232.822,77.33 233.989,77.6634 235,78.5C 237.653,85.4444 240.153,92.4444 242.5,99.5C 239.164,101.211 235.664,102.545 232,103.5C 229.276,96.505 226.443,89.505 223.5,82.5C 226.231,80.8084 228.898,79.1417 231.5,77.5 Z"/></g>
<g><path style="opacity:1" fill="#4d2118" d="M 107.5,90.5 C 108.497,90.4701 109.164,90.9701 109.5,92C 108.785,94.6053 107.452,96.772 105.5,98.5C 105.167,98.1667 104.833,97.8333 104.5,97.5C 105.788,95.2612 106.788,92.9279 107.5,90.5 Z"/></g>
<g><path style="opacity:1" fill="#471c17" d="M 188.5,93.5 C 189.497,93.4701 190.164,93.9701 190.5,95C 187.306,102.535 181.973,107.535 174.5,110C 180.128,105.214 184.795,99.7143 188.5,93.5 Z"/></g>
<g><path style="opacity:0.804" fill="#d4a928" d="M 12.5,102.5 C 15.5682,102.547 18.5682,103.047 21.5,104C 22.5784,104.674 23.2451,105.674 23.5,107C 22.1401,113.432 21.4735,119.932 21.5,126.5C 17.5,126.5 13.5,126.5 9.5,126.5C 9.62754,118.347 10.6275,110.347 12.5,102.5 Z"/></g>
<g><path style="opacity:0.824" fill="#d4a928" d="M 237.5,102.5 C 239.467,102.261 241.301,102.594 243,103.5C 244.456,111.101 245.289,118.768 245.5,126.5C 241.5,126.5 237.5,126.5 233.5,126.5C 233.527,119.932 232.86,113.432 231.5,107C 231.833,106.167 232.167,105.333 232.5,104.5C 234.336,103.972 236.003,103.306 237.5,102.5 Z"/></g>
<g><path style="opacity:1" fill="#4c2018" d="M 111.5,102.5 C 112.903,105.208 112.236,107.542 109.5,109.5C 109.167,109.333 108.833,109.167 108.5,109C 109.793,106.948 110.793,104.781 111.5,102.5 Z"/></g>
<g><path style="opacity:1" fill="#522719" d="M 127.5,101.5 C 128.239,101.369 128.906,101.536 129.5,102C 116.718,114.058 107.885,128.558 103,145.5C 102.693,141.38 103.36,137.38 105,133.5C 107.333,128.833 109.667,124.167 112,119.5C 117.376,113.628 122.543,107.628 127.5,101.5 Z"/></g>
<g><path style="opacity:1" fill="#451a17" d="M 185.5,117.5 C 186.344,121.001 185.011,123.834 181.5,126C 178.77,128.204 175.77,129.537 172.5,130C 177.336,126.33 181.669,122.164 185.5,117.5 Z"/></g>
<g><path style="opacity:0.797" fill="#d4a928" d="M 9.5,128.5 C 13.5,128.5 17.5,128.5 21.5,128.5C 21.4735,135.068 22.1401,141.568 23.5,148C 23.1667,148.833 22.8333,149.667 22.5,150.5C 19.0451,152.233 15.5451,152.566 12,151.5C 10.5443,143.899 9.71099,136.232 9.5,128.5 Z"/></g>
<g><path style="opacity:0.818" fill="#d5a928" d="M 233.5,128.5 C 237.5,128.5 241.5,128.5 245.5,128.5C 245.289,136.232 244.456,143.899 243,151.5C 239.455,152.566 235.955,152.233 232.5,150.5C 232.167,149.667 231.833,148.833 231.5,148C 232.86,141.568 233.527,135.068 233.5,128.5 Z"/></g>
<g><path style="opacity:1" fill="#431716" d="M 68.5,144.5 C 76.9354,146.751 85.6021,147.917 94.5,148C 96.1161,148.615 97.4495,149.615 98.5,151C 85.8222,151.895 73.1555,152.895 60.5,154C 60.0426,154.414 59.7093,154.914 59.5,155.5C 66.2912,156.034 72.9579,157.201 79.5,159C 81.158,159.725 81.658,160.892 81,162.5C 73.5707,160.125 66.0707,159.958 58.5,162C 57.2283,163.307 56.2283,164.807 55.5,166.5C 51.9204,164.064 50.7538,160.73 52,156.5C 57.3017,152.112 62.8017,148.112 68.5,144.5 Z"/></g>
<g><path style="opacity:1" fill="#431816" d="M 168.5,144.5 C 169.552,144.351 170.552,144.517 171.5,145C 161.32,150.256 150.986,155.256 140.5,160C 138.391,161.141 136.558,162.641 135,164.5C 125.414,180.671 116.08,197.004 107,213.5C 113.939,198.279 120.939,182.946 128,167.5C 130.5,161 135,156.5 141.5,154C 150.711,151.098 159.711,147.932 168.5,144.5 Z"/></g>
<g><path style="opacity:0.798" fill="#d4a828" d="M 22.5,151.5 C 23.7899,152.058 24.6232,153.058 25,154.5C 26.4741,160.756 28.6407,166.756 31.5,172.5C 28.5546,174.556 25.3879,176.223 22,177.5C 20.3468,177.18 19.3468,176.18 19,174.5C 16.8333,168.167 14.6667,161.833 12.5,155.5C 15.7859,153.855 19.1193,152.522 22.5,151.5 Z"/></g>
<g><path style="opacity:0.808" fill="#d5a928" d="M 231.5,151.5 C 235.346,152.377 239.012,153.71 242.5,155.5C 240.333,161.833 238.167,168.167 236,174.5C 235.653,176.18 234.653,177.18 233,177.5C 229.612,176.223 226.445,174.556 223.5,172.5C 226.571,165.616 229.237,158.616 231.5,151.5 Z"/></g>
<g><path style="opacity:1" fill="#411616" d="M 104.5,170.5 C 106.411,170.574 107.578,171.574 108,173.5C 108.176,179.11 109.009,184.61 110.5,190C 110.167,190.5 109.833,191 109.5,191.5C 105.485,185.105 103.818,178.105 104.5,170.5 Z"/></g>
<g><path style="opacity:1" fill="#471b17" d="M 81.5,169.5 C 82.7211,168.535 84.0544,168.702 85.5,170C 88.9646,172.463 92.1312,175.296 95,178.5C 95.7511,183.572 95.4178,188.572 94,193.5C 93.8814,188.718 93.2148,184.051 92,179.5C 88.6309,175.963 85.1309,172.629 81.5,169.5 Z"/></g>
<g><path style="opacity:1" fill="#512518" d="M 136.5,169.5 C 142.546,169.823 148.212,171.99 153.5,176C 147.697,174.442 142.03,172.275 136.5,169.5 Z"/></g>
<g><path style="opacity:1" fill="#461a17" d="M 135.5,172.5 C 147.579,177.371 158.912,183.538 169.5,191C 167.177,190.694 164.844,190.028 162.5,189C 154.991,184.745 147.324,180.745 139.5,177C 137.365,176.124 136.031,174.624 135.5,172.5 Z"/></g>
<g><path style="opacity:0.822" fill="#d3a828" d="M 43.5,194.5 C 42.8333,194.5 42.5,194.833 42.5,195.5C 40.5956,195.738 39.2623,196.738 38.5,198.5C 36.6089,199.536 34.7755,199.536 33,198.5C 29.1756,192.339 25.3423,186.173 21.5,180C 24.8927,177.466 28.5593,175.799 32.5,175C 36.4671,181.433 40.1337,187.933 43.5,194.5 Z"/></g>
<g><path style="opacity:0.799" fill="#d5a928" d="M 216.5,198.5 C 215.415,196.413 213.749,195.08 211.5,194.5C 214.866,187.933 218.533,181.433 222.5,175C 226.441,175.799 230.107,177.466 233.5,180C 229.658,186.173 225.824,192.339 222,198.5C 220.224,199.536 218.391,199.536 216.5,198.5 Z"/></g>
<g><path style="opacity:1" fill="#481d17" d="M 129.5,178.5 C 135.58,182.406 141.246,186.906 146.5,192C 140.408,189.342 134.908,185.508 130,180.5C 129.536,179.906 129.369,179.239 129.5,178.5 Z"/></g>
<g><path style="opacity:0.811" fill="#d4a928" d="M 211.5,194.5 C 212.585,196.587 214.251,197.92 216.5,198.5C 218.113,199.838 218.613,201.505 218,203.5C 213.167,208.333 208.333,213.167 203.5,218C 201.505,218.613 199.838,218.113 198.5,216.5C 198.262,214.596 197.262,213.262 195.5,212.5C 195.5,211.833 195.167,211.5 194.5,211.5C 199.167,204.833 204.833,199.167 211.5,194.5 Z"/></g>
<g><path style="opacity:0.817" fill="#d4a928" d="M 43.5,194.5 C 50.1667,199.167 55.8333,204.833 60.5,211.5C 58.4131,212.585 57.0798,214.251 56.5,216.5C 55.1619,218.113 53.4952,218.613 51.5,218C 46.6667,213.167 41.8333,208.333 37,203.5C 36.3872,201.505 36.8872,199.838 38.5,198.5C 40.4044,198.262 41.7377,197.262 42.5,195.5C 43.1667,195.5 43.5,195.167 43.5,194.5 Z"/></g>
<g><path style="opacity:0.823" fill="#d3a828" d="M 194.5,211.5 C 195.167,211.5 195.5,211.833 195.5,212.5C 195.738,214.404 196.738,215.738 198.5,216.5C 199.536,218.391 199.536,220.224 198.5,222C 192.339,225.824 186.173,229.658 180,233.5C 177.466,230.107 175.799,226.441 175,222.5C 181.433,218.533 187.933,214.866 194.5,211.5 Z"/></g>
<g><path style="opacity:0.818" fill="#d4a928" d="M 60.5,211.5 C 67.0668,214.866 73.5668,218.533 80,222.5C 79.2009,226.441 77.5343,230.107 75,233.5C 68.8275,229.658 62.6608,225.824 56.5,222C 55.4639,220.224 55.4639,218.391 56.5,216.5C 58.5869,215.415 59.9202,213.749 60.5,211.5 Z"/></g>
<g><path style="opacity:0.821" fill="#d4a928" d="M 81.5,223.5 C 88.8936,226.241 96.2269,229.074 103.5,232C 102.427,235.12 101.427,238.287 100.5,241.5C 100.167,241.833 99.8333,242.167 99.5,242.5C 92.4444,240.153 85.4444,237.653 78.5,235C 77.9781,234.439 77.6448,233.772 77.5,233C 78.9837,229.87 80.3171,226.703 81.5,223.5 Z"/></g>
<g><path style="opacity:0.81" fill="#d4a928" d="M 171.5,223.5 C 172.376,223.369 173.043,223.702 173.5,224.5C 175.577,227.624 176.743,230.958 177,234.5C 169.995,237.545 162.829,240.212 155.5,242.5C 153.789,239.164 152.455,235.664 151.5,232C 158.345,229.445 165.011,226.612 171.5,223.5 Z"/></g>
<g><path style="opacity:0.818" fill="#d4a928" d="M 104.5,231.5 C 111.787,232.636 119.12,233.303 126.5,233.5C 126.5,237.5 126.5,241.5 126.5,245.5C 118.768,245.289 111.101,244.456 103.5,243C 102.577,239.14 102.91,235.307 104.5,231.5 Z"/></g>
<g><path style="opacity:0.802" fill="#d5a928" d="M 145.5,231.5 C 147.288,231.215 148.955,231.548 150.5,232.5C 152.233,235.955 152.566,239.455 151.5,243C 143.899,244.456 136.232,245.289 128.5,245.5C 128.5,241.5 128.5,237.5 128.5,233.5C 134.404,233.679 140.071,233.012 145.5,231.5 Z"/></g>
</svg>
